<?xml version="1.0" standalone="no"?>
<!DOCTYPE svg PUBLIC "-//W3C//DTD SVG 20010904//EN"
 "http://www.w3.org/TR/2001/REC-SVG-20010904/DTD/svg10.dtd">
<svg version="1.0" xmlns="http://www.w3.org/2000/svg"
 width="256.000000pt" height="256.000000pt" viewBox="0 0 256.000000 256.000000"
 preserveAspectRatio="xMidYMid meet">
<metadata>
Created by potrace 1.11, written by Peter Selinger 2001-2013
</metadata>
<g transform="translate(0.000000,256.000000) scale(0.100000,-0.100000)"
fill="#000000" stroke="none">
<path d="M645 2098 c-43 -73 -87 -149 -97 -168 -29 -50 -111 -191 -125 -215
-7 -11 -15 -27 -19 -34 -4 -8 -59 -102 -121 -209 l-113 -195 44 -76 c24 -42
56 -98 71 -125 15 -26 80 -139 144 -250 65 -110 129 -221 143 -246 14 -25 53
-93 88 -152 l62 -108 551 0 552 0 43 74 c23 40 42 75 42 78 0 2 -200 5 -444 5
-243 0 -465 4 -492 8 -172 25 -313 180 -328 359 -15 180 110 363 279 408 41
11 44 14 50 57 27 181 137 332 300 411 196 95 406 72 578 -65 105 -83 192
-248 196 -371 1 -16 12 -23 49 -33 52 -13 108 -46 158 -93 35 -33 33 -35 86
58 l35 60 -69 120 c-38 65 -81 139 -95 164 -14 25 -75 131 -136 235 -61 105
-122 210 -136 236 -14 25 -46 80 -70 122 l-45 77 -552 0 -552 0 -77 -132z"/>
<path d="M1415 1626 c-182 -42 -302 -207 -308 -423 l-2 -58 -40 -2 c-161 -4
-279 -118 -277 -266 1 -101 50 -184 136 -230 40 -22 48 -22 557 -25 l517 -3
68 118 c163 280 153 254 120 298 -36 47 -117 92 -180 101 -86 11 -88 12 -92
85 -7 133 -38 212 -113 293 -93 100 -246 144 -386 112z"/>
</g>
</svg>
