<?xml version="1.0" encoding="utf-8"?>
<!-- Generator: Adobe Illustrator 19.0.1, SVG Export Plug-In . SVG Version: 6.00 Build 0)  -->
<svg version="1.1" id="Layer_1" xmlns="http://www.w3.org/2000/svg" xmlns:xlink="http://www.w3.org/1999/xlink" x="0px" y="0px"
	 viewBox="0 0 1000 308.8" style="enable-background:new 0 0 1000 308.8;" xml:space="preserve">
<style type="text/css">
	.st0{fill:#00AEEF;}
	.st1{fill:#FFFFFF;}
	.st2{fill:#262262;}
</style>
<g id="Clip-25">
</g>
<g>
	<g>
		<polygon class="st0" points="225.1,230.1 137.6,230.1 93.9,154.4 137.6,78.7 225.1,78.7 268.8,154.4 		"/>
		<polygon class="st0" points="236.4,59 126.3,59 71.2,154.4 126.3,249.8 236.4,249.8 291.5,154.4 		"/>
		<path class="st1" d="M205.1,118.5c25,0,42.7,20.3,40.3,49.1c12.6-0.3,32.1,5.4,32.1,26.9c0,14-11.4,25.3-25.3,25.3H158
			c-14,0-25.3-11.4-25.3-25.3c0-20.3,18-27.8,32.1-26.9C163.6,137,180.8,118.5,205.1,118.5z M205.1,104c-29,0-52.6,22.7-54.2,51.4
			c-18.6,3.4-32.7,19.6-32.7,39.2c0,22,17.8,39.8,39.8,39.8h94.1c22,0,39.8-17.8,39.8-39.8c0-19.6-14.1-35.8-32.7-39.2
			C257.7,126.8,234.1,104,205.1,104z"/>
	</g>
	<path class="st2" d="M394.5,122.1v91.7h-26.3v-91.7h-24.8V99.9h75.8v22.2H394.5z"/>
	<path class="st2" d="M425.9,213.8l18.3-113.9H466l28.4,68.2l28.4-68.2h21.9l18.3,113.9h-26.3l-9.1-68l-28.5,68h-9.2l-28.5-68
		l-9.1,68H425.9z"/>
	<g>
		<path class="st2" d="M665.5,131.7c-3.2-3.2-8.2-7.1-13.4-9.6c-5.4-2.5-11.7-4-17.8-4c-23.8,0-41.4,19.1-41.4,42.9
			c0,27.9,22.7,42,41.5,42c6.9,0,13.7-2,19.1-4.8c5.9-2.9,10-6.8,11.9-8.6v14.2c-11.4,8.2-23.3,10-31,10
			c-30.6,0-53.3-23.2-53.3-52.9c0-30.7,23-53.6,53.9-53.6c6.2,0,18.1,0.8,30.4,10.2V131.7z"/>
		<path class="st2" d="M694.8,99.5V212h-11.1V99.5H694.8z"/>
		<path class="st2" d="M711.8,180.2c0-19.4,14.4-33.8,34-33.8c19.6,0,34,14.4,34,33.8s-14.5,33.7-34,33.7S711.8,199.6,711.8,180.2z
			 M723.2,180.2c0,15.7,11.1,23.8,22.5,23.8c11.6,0,22.5-8.2,22.5-23.8c0-15.7-10.8-23.9-22.5-23.9S723.2,164.6,723.2,180.2z"/>
		<path class="st2" d="M807.8,185.3c0,4.5,0,9.7,3.1,13.7c1.7,2.2,5.1,4.9,11.3,4.9s9.6-2.8,11.3-4.9c3.1-4,3.1-9.3,3.1-13.7v-37.4
			h11.1v38.6c0,7.9-0.8,13.7-5.9,19.3c-5.7,6-13.3,8-19.6,8c-6.3,0-13.9-2-19.6-8c-5.1-5.6-5.9-11.4-5.9-19.3v-38.6h11.1V185.3z"/>
		<path class="st2" d="M917.7,99.5h11.1V212h-11.1v-9c-3.7,4.8-10.7,10.8-21.9,10.8c-16.2,0-31.2-11.4-31.2-34
			c0-22.1,14.8-33.5,31.2-33.5c12.3,0,19,6.8,21.9,10.7V99.5z M876,179.9c0,13.7,7.7,24.1,21,24.1c13.6,0,21.3-11.3,21.3-23.9
			c0-16.5-11.4-23.8-21.3-23.8C886,156.3,876,164.3,876,179.9z"/>
	</g>
</g>
</svg>
